<svg width="300" height="300" viewBox="0 0 300 300" fill="none" xmlns="http://www.w3.org/2000/svg">
<g clip-path="url(#clip0_51723_305)">
<rect width="300" height="300" rx="32" fill="white"/>
<g clip-path="url(#clip1_51723_305)">
<path d="M390 -90H-90V390H390V-90Z" fill="#FBE81F"/>
<path d="M-90 82.8L-78.6 78C-67.2 73.2 -44.4 63.6 -21.6 59.64C1.2 55.56 24 57.24 46.8 56.16C69.6 55.2 92.4 51.6 115.44 56.04C138.36 60.36 161.64 72.84 184.56 78.36C207.6 84 230.4 82.8 253.2 87.84C276 92.76 298.8 104.04 321.6 99C344.4 93.96 367.2 72.84 378.6 62.16L390 51.6V391.2H378.6C367.2 391.2 344.4 391.2 321.6 391.2C298.8 391.2 276 391.2 253.2 391.2C230.4 391.2 207.6 391.2 184.56 391.2C161.64 391.2 138.36 391.2 115.44 391.2C92.4 391.2 69.6 391.2 46.8 391.2C24 391.2 1.2 391.2 -21.6 391.2C-44.4 391.2 -67.2 391.2 -78.6 391.2H-90V82.8Z" fill="#ACDC47"/>
<path d="M-90 133.2L-78.6 141.84C-67.2 150.36 -44.4 167.64 -21.6 176.76C1.2 186 24 187.2 46.8 185.4C69.6 183.6 92.4 178.8 115.44 168.36C138.36 158.04 161.64 141.96 184.56 138.36C207.6 134.76 230.4 143.64 253.2 146.4C276 149.16 298.8 146.04 321.6 149.64C344.4 153.24 367.2 163.56 378.6 168.84L390 174V391.2H378.6C367.2 391.2 344.4 391.2 321.6 391.2C298.8 391.2 276 391.2 253.2 391.2C230.4 391.2 207.6 391.2 184.56 391.2C161.64 391.2 138.36 391.2 115.44 391.2C92.4 391.2 69.6 391.2 46.8 391.2C24 391.2 1.2 391.2 -21.6 391.2C-44.4 391.2 -67.2 391.2 -78.6 391.2H-90V133.2Z" fill="#68C869"/>
<path d="M-90 241.2L-78.6 236.16C-67.2 231.24 -44.4 221.16 -21.6 216.84C1.2 212.4 24 213.6 46.8 221.16C69.6 228.84 92.4 242.76 115.44 243.6C138.36 244.44 161.64 231.96 184.56 223.2C207.6 214.44 230.4 209.16 253.2 213.84C276 218.4 298.8 232.8 321.6 239.16C344.4 245.64 367.2 243.96 378.6 243.24L390 242.4V391.2H378.6C367.2 391.2 344.4 391.2 321.6 391.2C298.8 391.2 276 391.2 253.2 391.2C230.4 391.2 207.6 391.2 184.56 391.2C161.64 391.2 138.36 391.2 115.44 391.2C92.4 391.2 69.6 391.2 46.8 391.2C24 391.2 1.2 391.2 -21.6 391.2C-44.4 391.2 -67.2 391.2 -78.6 391.2H-90V241.2Z" fill="#2BAF80"/>
<path d="M-90 338.4L-78.6 333.96C-67.2 329.64 -44.4 320.76 -21.6 318.6C1.2 316.44 24 320.76 46.8 317.16C69.6 313.56 92.4 302.04 115.44 302.4C138.36 302.76 161.64 315.24 184.56 313.2C207.6 311.16 230.4 294.84 253.2 291.84C276 288.84 298.8 299.16 321.6 302.04C344.4 304.8 367.2 300 378.6 297.6L390 295.2V391.2H378.6C367.2 391.2 344.4 391.2 321.6 391.2C298.8 391.2 276 391.2 253.2 391.2C230.4 391.2 207.6 391.2 184.56 391.2C161.64 391.2 138.36 391.2 115.44 391.2C92.4 391.2 69.6 391.2 46.8 391.2C24 391.2 1.2 391.2 -21.6 391.2C-44.4 391.2 -67.2 391.2 -78.6 391.2H-90V338.4Z" fill="#099487"/>
<path fill-rule="evenodd" clip-rule="evenodd" d="M-90 -90H390V390H-90V-90ZM255.585 63.3719C261.455 69.2179 261.474 78.7153 255.628 84.5851L161.013 179.585C158.199 182.41 154.376 183.999 150.388 184C146.401 184.001 142.577 182.414 139.762 179.59L111.377 151.119C105.528 145.252 105.543 135.755 111.41 129.906C117.276 124.057 126.774 124.071 132.623 129.938L150.379 147.749L234.372 63.4149C240.218 57.5452 249.715 57.5259 255.585 63.3719ZM132.37 71.967C149.197 68.1651 166.802 69.9045 182.56 76.9258C190.127 80.2975 198.995 76.8965 202.366 69.3294C205.738 61.7623 202.337 52.8947 194.77 49.5229C173.103 39.8687 148.895 37.477 125.758 42.7046C102.621 47.9322 81.7929 60.499 66.3811 78.5307C50.9693 96.5625 41.7992 119.093 40.2384 142.762C38.6777 166.432 44.8099 189.971 57.7206 209.871C70.6312 229.77 89.6285 244.963 111.879 253.183C134.13 261.404 158.442 262.211 181.189 255.486C203.936 248.76 223.9 234.862 238.103 215.863C252.305 196.864 259.986 173.784 260 150.063V141.314C260 133.03 253.284 126.314 245 126.314C236.716 126.314 230 133.03 230 141.314V150.046C229.99 167.297 224.404 184.083 214.075 197.9C203.745 211.718 189.226 221.826 172.683 226.717C156.139 231.608 138.458 231.021 122.276 225.042C106.093 219.064 92.2772 208.015 82.8877 193.542C73.4981 179.07 69.0383 161.95 70.1734 144.736C71.3085 127.522 77.9777 111.136 89.1862 98.0224C100.395 84.9084 115.542 75.7689 132.37 71.967Z" fill="#1F2122"/>
</g>
</g>
<defs>
<clipPath id="clip0_51723_305">
<rect width="300" height="300" rx="32" fill="white"/>
</clipPath>
<clipPath id="clip1_51723_305">
<rect width="480" height="480" fill="white" transform="translate(-90 -90)"/>
</clipPath>
</defs>
</svg>
