<svg width="4096" height="4096" viewBox="0 0 4096 4096" fill="none" xmlns="http://www.w3.org/2000/svg">
<rect x="384" y="384" width="3328" height="3328" rx="765" fill="white"/>
<path d="M3202.92 1942.2V2048.5C3202.77 2297.66 3122.1 2540.09 2972.91 2739.65C2823.73 2939.21 2614.03 3085.2 2375.1 3155.84C2136.17 3226.48 1880.8 3218 1647.09 3131.65C1413.37 3045.31 1213.83 2885.73 1078.22 2676.71C942.605 2467.69 878.194 2220.43 894.588 1971.82C910.981 1723.2 1007.3 1486.54 1169.18 1297.14C1331.07 1107.74 1549.84 975.74 1792.87 920.83C2035.9 865.921 2290.17 891.043 2517.75 992.449" stroke="#1A7F37" stroke-width="200" stroke-linecap="round" stroke-linejoin="round"/>
<path d="M3202.92 1124.17L2047.5 2280.74L1700.88 1934.11" stroke="#1A7F37" stroke-width="200" stroke-linecap="round" stroke-linejoin="round"/>
</svg>
